<svg xmlns="http://www.w3.org/2000/svg" viewBox="0 0 380 121" width="380" height="121"><title>black-logo-svg</title><defs><clipPath clipPathUnits="userSpaceOnUse" id="cp1"><path d="m0.19 0.19h48.81v58.81h-48.81z"></path></clipPath><clipPath clipPathUnits="userSpaceOnUse" id="cp2"><path d="m46 28h37v92.94h-37z"></path></clipPath></defs><style>		.s0 { fill: #f58a1e } 		.s1 { fill: #000000 } 	</style><g id="Clip-Path: Clip-Path: Clip-Path" clip-path="url(#cp1)"><g id="Clip-Path: Clip-Path"><g id="Clip-Path"><g id="Layer"><path id="Layer" fill-rule="evenodd" class="s0" d="m48.7 43.5l-0.2-9.2q-27.2 2.9-30.3-8.9-1.8-14.7 13.7-25.2c-46.7 1.9-41.9 62.2 15.3 58q-3.4-5.7 1.5-14.7z"></path></g></g></g></g><g id="Clip-Path: Clip-Path: Clip-Path" clip-path="url(#cp2)"><g id="Clip-Path: Clip-Path"><g id="Clip-Path"><g id="Layer"><path id="Layer" fill-rule="evenodd" class="s0" d="m58.1 61.2q19.9 5.8 12.5 23.7 0.4-3.2 0.2-5.9-2 0.7-4.2 0.7c-7.1 0-12.8-5.8-12.8-12.9q0-1.8 0.4-3.4-2.9-1.1-5.7-3.3-5.6 17.2 4.3 25.6 5 4 6.1 12c1.9-3.8 5.2-6 7.3-7q-14.5 17.3-4.7 21.6 1.6 9.1 12.5 8.6-0.3-1.1-1.3-2.8-6.5 0.9-8.1-5.7 7.7 0.3 12.5 8h5.3v-90.5q-19.4-5.1-31.1 4.2l0.4 8.3q3.9-2.7 11.9-2.8-14.5 4-14.7 13.3 0.6 7.5 9.2 8.3z"></path></g></g></g></g><g id="Layer"><g id="Layer"><g id="Layer"><path id="Layer" fill-rule="evenodd" class="s1" d="m95.3 66.4h2.8v-21.2h-2.8v-6.3h18c8.1 0 11.9 3 11.9 8.3 0 4.1-1.1 6-4.8 7.5 3.5 1 6.4 3.5 6.4 8.2 0 6.8-3.8 9.8-13.1 9.8h-18.4zm12.8-13.9h3c2.5 0 3.3-1.4 3.3-3.7 0-2.2-1.4-3.5-3.2-3.5h-3.1zm3.9 13.9c2 0 3.9-1.6 3.9-4.2 0-2.5-1.4-4.3-4.1-4.3h-3.7v8.5z"></path></g></g></g><g id="Layer"><g id="Layer"><g id="Layer"><path id="Layer" class="s1" d="m143.8 72.7v-6.3h-2.8v-29.9h-11.2v6.2h2v23.7h-2.1v6.3z"></path></g></g></g><g id="Layer"><g id="Layer"><g id="Layer"><path id="Layer" fill-rule="evenodd" class="s1" d="m147.5 50.6c1.9-1.2 6.1-3.4 10.5-3.4 5.8 0 13.1 2.1 13.1 9.9v9.4h2.9v6.2h-10.3l-1.2-2.2c-1.8 2.5-4.8 3.1-6.5 3.1-4.6 0-9.5-2.5-9.5-8.1 0-5.4 4.6-8.8 10-8.8 2.9 0 4.5 1.4 4.8 1.7v-1.7c0-2.2-2-2.7-4.6-2.7-2.8 0-5.4 1.2-7.2 2.2zm13.8 13.3c-0.1-0.2-0.8-1.4-2.8-1.4-2 0-2.8 1.1-2.8 2.6 0 1.3 1.1 2.2 2.5 2.2 1.5 0 2.7-0.8 3.1-1.6z"></path></g></g></g><g id="Layer"><g id="Layer"><g id="Layer"><path id="Layer" class="s1" d="m200.4 59.5v-10.9h-5.7l-0.8 2.3c-0.8-1-2.8-2.8-6.1-2.8-6.1 0-11.8 3.8-11.8 12.4 0 8.6 6.1 12.9 13.2 12.9 5.3 0 9.6-2.5 11.9-5l-4.3-4.9c-1.6 1.8-3.3 2.8-5.8 2.8-3.1-0.1-5-2.6-5-5.7 0-3.2 1.4-6.2 4.3-6.2 2.2 0 2.9 2.7 3 5.1z"></path></g></g></g><g id="Layer"><g id="Layer"><g id="Layer"><path id="Layer" class="s1" d="m204.6 72.7h12.9v-6.3h-1.8v-4.1l1.7-1.1 3.7 5.2h-2.1v6.3h14.3v-6.3h-2.4l-6.5-9.4 3.3-2h3.7v-6.4h-13.5v6.4h3.4l-5.6 3.3v-21.8h-11.1v6.3h2v23.6h-2z"></path></g></g></g><g id="Layer"><g id="Layer"><g id="Layer">			</g></g></g><g id="Layer"><g id="Layer"><g id="Layer"><path id="Layer" fill-rule="evenodd" class="s0" d="m250 66.4h2.8v-21.2h-2.8v-6.3h18c8.1 0 11.9 3 11.9 8.3 0 4.1-1.1 6-4.8 7.5 3.5 1 6.4 3.5 6.4 8.2 0 6.8-3.8 9.8-13.1 9.8h-18.4zm12.8-13.9h3c2.5 0 3.3-1.4 3.3-3.7 0-2.2-1.4-3.5-3.2-3.5h-3.1zm3.9 13.9c2 0 3.9-1.6 3.9-4.2 0-2.5-1.4-4.3-4.1-4.3h-3.7v8.5z"></path></g></g></g><g id="Layer"><g id="Layer"><g id="Layer"><path id="Layer" class="s0" d="m283.9 48.6v6.3h2.1v6.7c0 8 2.4 11.8 9.7 11.8 4.1 0 5.8-2.5 6.8-3.7l1.3 3h9.1v-6.4h-2.3v-17.7h-12.5v6.3h3.2v7.7c0 2.2-1.4 3.7-3.1 3.7-2 0-2.6-2-2.6-6.1v-11.6z"></path></g></g></g><g id="Layer"><g id="Layer"><g id="Layer"><path id="Layer" class="s0" d="m330.2 72.7v-6.3h-2.9v-29.9h-11.2v6.2h2.1v23.7h-2.1v6.3z"></path></g></g></g><g id="Layer"><g id="Layer"><g id="Layer"><path id="Layer" class="s0" d="m347.4 72.7v-6.3h-2.8v-29.9h-11.2v6.2h2v23.7h-2.1v6.3z"></path></g></g></g><g id="Layer"><g id="Layer"><g id="Layer"><path id="Layer" class="s1" d="m93.9 89.3h13.6v3.6h-4.8v15.1h-4v-15.1h-4.8z"></path></g></g></g><g id="Layer"><g id="Layer"><g id="Layer"><path id="Layer" fill-rule="evenodd" class="s1" d="m124.7 94.9q0 0.8-0.2 1.7-0.3 0.8-0.7 1.4-0.5 0.7-1.1 1.2-0.6 0.5-1.4 0.8l6.2 8h-4.6l-5.8-7.6h-1.8v7.6h-4v-18.7h8.1q1 0 2 0.4 1 0.5 1.8 1.2 0.7 0.8 1.1 1.8 0.4 1 0.4 2.2zm-5.9 1.9q0.8 0 1.4-0.6 0.5-0.5 0.5-1.3 0-0.8-0.5-1.4-0.6-0.6-1.4-0.6h-3.5v3.9z"></path></g></g></g><g id="Layer"><g id="Layer"><g id="Layer"><path id="Layer" fill-rule="evenodd" class="s1" d="m142.9 89.3l7.8 18.7h-4.4l-1.6-4h-8l-1.6 4h-4.4l7.8-18.7zm0.3 11l-2.5-5.8-2.4 5.8z"></path></g></g></g><g id="Layer"><g id="Layer"><g id="Layer"><path id="Layer" class="s1" d="m167.2 89.3h4v18.7h-3.8l-9-12.2v12.2h-3.9v-18.7h3.7l9 12.3z"></path></g></g></g><g id="Layer"><g id="Layer"><g id="Layer"><path id="Layer" class="s1" d="m187.6 98.4q1.1 0.6 1.6 1.6 0.6 1.1 0.6 2.4 0 1.3-0.6 2.4-0.6 1.1-1.7 1.9-1 0.8-2.3 1.2-1.3 0.4-2.7 0.4-1.4 0-2.7-0.4-1.3-0.4-2.3-1.2-1.5-1.1-2-2.7l3.7-1.7q0 0.2 0.1 0.6 0.2 0.4 0.6 0.8 0.4 0.4 1 0.6 0.7 0.3 1.6 0.3 0.7 0 1.3-0.2 0.6-0.2 0.9-0.4 0.4-0.3 0.6-0.7 0.2-0.3 0.2-0.7 0-0.4-0.3-0.8-0.2-0.4-0.8-0.6-1.1-0.3-2.2-0.6-1.2-0.2-2.3-0.6-1.1-0.4-2.1-1-0.9-0.7-1.5-1.8-0.5-1-0.5-2.1 0-1.3 0.6-2.5 0.6-1.2 1.6-2 1-0.8 2.2-1.2 1.2-0.4 2.6-0.4 1.3 0 2.6 0.4 1.2 0.4 2.2 1.2 0.9 0.7 1.5 1.6l-3 2.1q-0.6-0.8-1.4-1.2-0.9-0.5-1.9-0.5-1.4 0-2.2 0.6-0.8 0.7-0.8 1.7 0 0.5 0.5 0.9 0.4 0.3 1.1 0.6 0.7 0.3 1.6 0.5 0.8 0.3 1.7 0.5 0.9 0.2 1.6 0.4 0.8 0.3 1.3 0.6z"></path></g></g></g><path id="Layer" fill-rule="evenodd" class="s1" d="m379.1 21c0 7.7-6.3 14-14 14-7.7 0-14-6.3-14-14 0-7.8 6.3-14.1 14-14.1 7.7 0 14 6.3 14 14.1zm-25.8 0c0 6.5 5.3 11.8 11.8 11.8 6.6 0 11.9-5.3 11.9-11.8 0-6.6-5.3-11.9-11.9-11.9-6.5 0-11.8 5.3-11.8 11.9zm11.8-7.6c3 0 5.4 2.4 5.4 5.4 0 2.3-1.5 4.3-3.5 5l3.4 4.7h-2.6l-3.2-4.3h-2.7v4.3h-2.2v-15.1zm-3.2 8.6h3.2c1.8 0 3.3-1.4 3.3-3.2 0-1.8-1.5-3.2-3.3-3.2h-3.2z"></path></svg>